# xmcd CD database file
#
# Track frame offsets:
#	150
#	19872
#	34297
#	49875
#	67737
#	85740
#	99655
#	114177
#	131935
#	150985
#	168145
#	184302
#
# Disc length: 2732 seconds
#
# Revision: 0
# Processed by: cddbd v1.4PL0 Copyright (c) Steve Scherf et al.
# Submitted via: CDex 1.51
#
DISCID=930aaa0c
DTITLE=The Cheap Seats - Not that Different
DYEAR=1996
DGENRE=Country
TTITLE0=In the Ghetto
TTITLE1=I volunteer
TTITLE2=Paint it Black
TTITLE3=From Here to Eternity
TTITLE4=Say You Love Me
TTITLE5=Love is Stronger than Pride
TTITLE6=Rusty Cage
TTITLE7=Not that Different
TTITLE8=Say You'll Be There
TTITLE9=Its Your Love
TTITLE10=Brown Eyed Girl
TTITLE11=Like the Rain
EXTD=YEAR: 1996
EXTT0=
EXTT1=
EXTT2=
EXTT3=
EXTT4=
EXTT5=
EXTT6=
EXTT7=
EXTT8=
EXTT9=
EXTT10=
EXTT11=
PLAYORDER=
